<?xml version="1.0" encoding="utf-8"?>
<!-- Generator: Adobe Illustrator 21.0.2, SVG Export Plug-In . SVG Version: 6.00 Build 0)  -->
<svg version="1.1" id="Camada_1" xmlns="http://www.w3.org/2000/svg" xmlns:xlink="http://www.w3.org/1999/xlink" x="0px" y="0px"
	 viewBox="0 0 800 800" style="enable-background:new 0 0 800 800;" xml:space="preserve">
<style type="text/css">
	.st0{fill:#FFFFFF;}
	.st1{fill:url(#SVGID_1_);}
	.st2{fill:url(#XMLID_5_);}
	.st3{opacity:0.25;}
	.st4{fill:#3B3B3B;}
	.st5{opacity:0.25;fill:#3B3B3B;}
	.st6{fill:none;}
	.st7{fill:#D8D8D8;}
	.st8{fill:#2d323e;}
</style>
<g>
	<g>
		<path id="XMLID_135_" class="st8" d="M372,421.5c0-13,4.6-24.2,13.8-33.4c8.9-8.9,20.9-13.8,33.4-13.8c13.1,0,24.2,4.6,33.4,13.8
			c1.2,1.2,2.4,2.5,3.4,3.8c0.6,0.7,0.4,1.7-0.3,2.3l-8.2,6.2c-0.7,0.5-1.7,0.4-2.2-0.3c-0.7-0.8-1.4-1.6-2.2-2.4
			c-6.6-6.6-14.6-9.9-23.9-9.9c-8.7,0-17.1,3.3-23.3,9.4c-7.1,6.9-10.6,15.2-10.4,25.1c0.2,8.7,3.7,16.9,9.9,23.1
			c6.6,6.6,14.5,9.9,23.9,9.9c9.3,0,17.3-3.3,23.9-9.9c0.8-0.8,1.5-1.6,2.2-2.4c0.6-0.7,1.5-0.8,2.2-0.3l8.2,6.2
			c0.7,0.5,0.9,1.6,0.3,2.3c-1.1,1.3-2.2,2.5-3.4,3.7c-8.9,8.9-20.9,13.9-33.5,13.9c-13,0-24.2-4.6-33.4-13.8
			C376.6,445.7,372,434.5,372,421.5z"/>
		<path id="XMLID_133_" class="st8" d="M477.1,375.8v91.3c0,0.9-0.7,1.6-1.6,1.6h-10.3c-0.9,0-1.6-0.7-1.6-1.6v-91.3
			c0-0.9,0.7-1.6,1.6-1.6h10.3C476.3,374.2,477.1,374.9,477.1,375.8z"/>
		<path id="XMLID_131_" class="st8" d="M364.9,402.2v64.9c0,0.9-0.7,1.6-1.6,1.6H353c-0.9,0-1.6-0.7-1.6-1.6v-64.9
			c0-0.9,0.7-1.6,1.6-1.6h10.3C364.2,400.6,364.9,401.3,364.9,402.2z"/>
		<path id="XMLID_128_" class="st8" d="M518.2,468.7c-9.4,0-17.4-3.3-24.1-10c-6.7-6.7-10-14.7-10-24.1c0-9.4,3.3-17.4,10-24.1
			c6.7-6.7,14.7-10,24.1-10c9.4,0,17.4,3.3,24.1,10c6.7,6.7,10,14.7,10,24.1c0,9.4-3.3,17.4-10,24.1
			C535.7,465.4,527.6,468.7,518.2,468.7z M518.2,414.2c-5.6,0-10.4,2-14.4,6c-4,4-6,8.8-6,14.4c0,5.6,2,10.4,6,14.4
			c4,4,8.8,6,14.4,6c5.6,0,10.4-2,14.4-6c4-4,6-8.8,6-14.4c0-5.6-2-10.4-6-14.4C528.7,416.2,523.9,414.2,518.2,414.2z"/>
		<path id="XMLID_126_" class="st8" d="M564.1,400.6v-24.8c0-0.9,0.7-1.6,1.6-1.6H576c0.9,0,1.6,0.7,1.6,1.6v24.8h18.7
			c0.9,0,1.6,0.7,1.6,1.6v10.3c0,0.9-0.7,1.6-1.6,1.6h-18.7V435c0,5.6,2,10.4,5.9,14.3c3.6,3.6,7.9,5.6,12.9,5.9
			c0.8,0.1,1.4,0.8,1.4,1.6v10.3c0,0.9-0.7,1.6-1.6,1.6c-8.5-0.4-15.9-3.6-22-9.7c-6.5-6.5-10.1-15.4-10.1-24.6v-20.3h-6.8
			c-0.9,0-1.6-0.7-1.6-1.6v-10.3c0-0.9,0.7-1.6,1.6-1.6H564.1z"/>
		<path id="XMLID_124_" class="st8" d="M659.2,434.3c0-5.6-2-10.3-5.9-14.3c-4-4-8.7-5.9-14.3-5.9c-5.6,0-10.4,2-14.3,5.9
			c-4,4-5.9,8.7-5.9,14.3v32.8c0,0.9-0.7,1.6-1.6,1.6h-10.3c-0.9,0-1.6-0.7-1.6-2.2v-91.3c0-0.2,0.7-1,1.6-1h10.3
			c0.9,0,1.6,0.7,1.6,1.6v31.5c5.8-4.5,12.6-6.7,20.4-6.7c8.9,0,17.4,3.6,23.7,9.9c6.6,6.6,9.9,14.5,9.9,23.9v32.8
			c0,0.9-0.7,1.6-1.6,1.6h-10.3c-0.9,0-1.6-0.7-1.6-1.6V434.3z"/>
		<path id="XMLID_121_" class="st8" d="M728.4,448.3l10.4,5.8c0.9,0.5,1.1,1.7,0.4,2.5l-1.9,2.1c-6.7,6.7-14.7,10-24.1,10
			c-8.8,0-17.2-3.4-23.6-9.5c-7-6.7-10.5-14.9-10.5-24.6c0-9,3.6-17.7,10-24.1c6.8-6.8,15.1-10.2,24.8-10c8.8,0.2,17.1,3.7,23.4,10
			c6.7,6.7,10,14.7,10,24.1c0,1.9-0.1,3.7-0.4,5.5c-0.1,0.8-0.8,1.3-1.6,1.3h-51.4c1,2.8,2.6,5.4,4.9,7.6c4,4,8.8,6,14.4,6
			c5.6,0,10.4-2,14.4-6C727.9,448.8,728.2,448.6,728.4,448.3z M732.5,427.9c-1-2.8-2.6-5.4-4.9-7.6c-4-4-8.8-6-14.4-6
			c-5.6,0-10.4,2-14.4,6c-2.3,2.3-3.9,4.8-4.9,7.6H732.5z"/>
		<path id="XMLID_119_" class="st8" d="M775.2,440.2c-8.8-3-14.6-5.5-17.6-7.5c-2.9-2-4.8-5.4-5.8-10.3c-0.9-4.9,0.3-9.7,3.8-14.4
			c3.5-4.7,9.4-7.2,17.8-7.4c8-0.2,16.1,2,24.3,6.6c0.8,0.4,1,1.4,0.6,2.2l-4.6,8.6c-0.4,0.8-1.4,1.1-2.2,0.6
			c-6.7-3.8-12.4-5.7-17.2-5.7c-5.1,0-8,1.5-8.6,4.8c-0.7,3.2,1.2,5.8,5.5,7.8c4.3,2,8.9,3.7,13.9,5.2c4.9,1.5,8.5,3.2,10.7,5.3
			s3.6,5.1,4,9c0.4,4-0.1,7.6-1.6,10.9c-1.5,3.3-3.9,6.1-7.4,8.4c-3.4,2.3-8.2,3.7-14.4,4.2c-5.8,0.5-13.5-1.4-23.1-5.7
			c-0.8-0.4-1.2-1.4-0.8-2.2l4.6-8.8c0.4-0.7,1.3-1,2-0.7c6.8,2.8,12.5,4.4,17,4.8c4.9,0.5,8.1-1.3,9.7-5.2
			C787.6,446.7,784,443.2,775.2,440.2z"/>
		<circle class="st8" cx="358.2" cy="380.9" r="7.9"/>
	</g>
	<g>
		<linearGradient id="SVGID_1_" gradientUnits="userSpaceOnUse" x1="142.5431" y1="544.1395" x2="142.5431" y2="259.5214">
			<stop  offset="0" style="stop-color:#64B0A2"/>
			<stop  offset="1" style="stop-color:#7AD7B4"/>
		</linearGradient>
		<path class="st1" d="M237.6,536.8c-8.4,0-16.7,0-25.1,0c-19.1,0-38.2,0-57.3,0c-20.8,0-41.5,0-62.3,0c-13.6,0-27.3,0-40.9,0
			c-4.6,0-9.2,0-13.7-1c-14-2.9-26.1-12.6-32.1-25.6c-5.1-11.2-4.1-23.5-4.1-35.4c0-17.9,0-35.8,0-53.6c0-21.1,0-42.2,0-63.3
			c0-14.4,0-28.7,0-43.1c0-4.2-0.1-8.4,0.6-12.6c2.4-14.1,11.6-26.6,24.4-33c11.2-5.7,23.3-4.8,35.4-4.8c17.3,0,34.6,0,51.9,0
			c21.2,0,42.5,0,63.7,0c16.2,0,32.3,0,48.5,0c3.4,0,6.9,0,10.3,0c10.8,0,21.2,3.5,29.6,10.4c10.4,8.7,16.4,21.6,16.5,35.1
			c0,2.7,0,5.4,0,8.1c0,15.7,0,31.3,0,47c0,21.2,0,42.5,0,63.7c0,16.8,0,33.7,0,50.5c0,3.8,0,7.5,0,11.3c0,10.3-3.1,20.3-9.4,28.5
			C265.1,530.2,251.6,536.8,237.6,536.8z"/>
		<g id="XMLID_112_">
			<circle id="XMLID_117_" class="st0" cx="207.4" cy="316.3" r="6.7"/>
			
				<ellipse id="XMLID_115_" transform="matrix(0.7071 -0.7071 0.7071 0.7071 -157.2887 252.9212)" class="st0" cx="226.7" cy="316.3" rx="6.7" ry="6.7"/>
			<circle id="XMLID_113_" class="st0" cx="245.9" cy="316.3" r="6.7"/>
		</g>
		<linearGradient id="XMLID_5_" gradientUnits="userSpaceOnUse" x1="141.4992" y1="496.3812" x2="141.4992" y2="337.8788">
			<stop  offset="0" style="stop-color:#487FFA"/>
			<stop  offset="1" style="stop-color:#83C3EE"/>
		</linearGradient>
		<circle id="XMLID_111_" class="st2" cx="141.5" cy="416.7" r="68.7"/>
		<g class="st3">
			<path class="st4" d="M141.5,363.1c35,0,63.8,26.1,68.1,59.9c0.4-2.9,0.6-5.8,0.6-8.7c0-37.9-30.7-68.7-68.7-68.7
				s-68.7,30.7-68.7,68.7c0,3,0.2,5.9,0.6,8.7C77.7,389.3,106.5,363.1,141.5,363.1z"/>
		</g>
		<path id="XMLID_110_" class="st5" d="M207.6,435.5h-12.1c-1.8,0-3.3-1.5-3.3-3.3v-28.3c0-1.8,1.5-3.3,3.3-3.3h12.1
			c1.8,0,3.3,1.5,3.3,3.3v28.3C211,434,209.5,435.5,207.6,435.5z"/>
		<g>
			<g id="XMLID_108_">
				<circle id="XMLID_109_" class="st0" cx="133" cy="397.7" r="13.3"/>
			</g>
			<g id="XMLID_106_">
				<circle id="XMLID_107_" class="st0" cx="151.3" cy="419.6" r="5.3"/>
			</g>
			<g id="XMLID_104_">
				<circle id="XMLID_105_" class="st0" cx="106.6" cy="388" r="5.3"/>
			</g>
			<g id="XMLID_101_">
				<circle id="XMLID_103_" class="st0" cx="172.3" cy="403.4" r="10.8"/>
			</g>
			<g id="XMLID_99_">
				<circle id="XMLID_102_" class="st0" cx="160.2" cy="377.5" r="6.9"/>
			</g>
			<g id="XMLID_98_">
				<circle id="XMLID_100_" class="st0" cx="98.3" cy="421.1" r="6.9"/>
			</g>
		</g>
		<g>
			<path class="st6" d="M141.5,354.5c-34.4,0-62.2,27.9-62.2,62.2c0,10.9,2.8,21.1,7.7,30c2.4-4.5,7.2-7.5,12.6-7.5
				c2.3,0,4.4,0.5,6.3,1.5c1.4-6.5,7.1-11.4,14-11.4c4.3,0,8.2,1.9,10.8,4.9c2.6-3,6.5-4.9,10.8-4.9c4.3,0,8.2,1.9,10.8,4.9
				c2.6-3,6.5-4.9,10.8-4.9c6.9,0,12.6,4.9,14,11.4c1.9-1,4.1-1.5,6.3-1.5c5.4,0,10.1,3,12.5,7.4c4.9-8.9,7.6-19,7.6-29.9
				C203.7,382.4,175.9,354.5,141.5,354.5z"/>
			<path class="st0" d="M141.5,334c-45.7,0-82.8,37-82.8,82.8s37,82.8,82.8,82.8c45.7,0,82.8-37,82.8-82.8S187.2,334,141.5,334z
				 M196.1,446.6c-2.4-4.4-7.1-7.4-12.5-7.4c-2.3,0-4.4,0.5-6.3,1.5c-1.4-6.5-7.1-11.4-14-11.4c-4.3,0-8.2,1.9-10.8,4.9
				c-2.6-3-6.5-4.9-10.8-4.9c-4.3,0-8.2,1.9-10.8,4.9c-2.6-3-6.5-4.9-10.8-4.9c-6.9,0-12.6,4.9-14,11.4c-1.9-1-4.1-1.5-6.3-1.5
				c-5.5,0-10.2,3.1-12.6,7.5c-4.9-8.9-7.7-19.1-7.7-30c0-34.4,27.9-62.2,62.2-62.2s62.2,27.9,62.2,62.2
				C203.7,427.6,200.9,437.7,196.1,446.6z"/>
		</g>
		<path id="XMLID_97_" class="st0" d="M56.1,319.9"/>
		<g>
			<circle id="XMLID_176_" class="st0" cx="49.7" cy="316.3" r="17.2"/>
			<path class="st7" d="M51.8,314.2v-3.9c0-1-0.8-1.7-1.7-1.7h-1.3c-1,0-1.7,0.8-1.7,1.7v7c0,1,0.8,1.7,1.7,1.7h7
				c1,0,1.7-0.8,1.7-1.7v-1.3c0-1-0.8-1.7-1.7-1.7H51.8z"/>
		</g>
		<path id="XMLID_178_" class="st7" d="M209.7,434.2h-12.1c-1.8,0-3.3-1.5-3.3-3.3v-28.3c0-1.8,1.5-3.3,3.3-3.3h12.1
			c1.8,0,3.3,1.5,3.3,3.3v28.3C213.1,432.7,211.6,434.2,209.7,434.2z"/>
	</g>
</g>
</svg>
